<svg width="80" height="24" viewBox="0 0 80 24" fill="none" xmlns="http://www.w3.org/2000/svg">
<path d="M79.971 22.7257L79.9974 23.7724C79.9974 23.8862 79.8785 24 79.7597 24H53.7075C53.5886 24 53.4698 23.8862 53.4698 23.7724V22.4071C53.4698 22.2933 53.5886 22.1795 53.7075 22.1795H77.463L77.5818 17.8306V16.354L77.4973 16.4905C76.7844 17.4387 75.7362 18.0076 74.3501 18.0076C72.6659 18.0076 71.4513 17.2187 70.7464 15.9722C70.6883 15.871 70.6329 15.7623 70.5827 15.6536C70.25 14.9507 70.0679 14.1239 70.0391 13.2288C70.0364 13.1403 70.0335 11.6612 70.0335 11.5727C70.0335 11.5044 70.0335 11.4311 70.0282 11.3603V11.3198L70.0232 11.0089L69.9572 8.17192C69.9572 8.05814 70.0784 7.94439 70.1999 7.94439H72.3094C72.4335 7.94439 72.555 8.05814 72.555 8.17192L72.489 10.7686V10.7762C72.4758 10.9456 72.4705 11.2415 72.4705 11.421V11.4564C72.4784 13.7092 73.3312 16.397 75.0049 16.397C76.5679 16.397 77.4049 14.1947 77.5237 12.0657C77.5343 11.914 77.5395 11.7623 77.5395 11.6106V11.5348L77.5316 11.2061L77.5263 10.8925L77.4656 8.17192C77.4656 8.05814 77.5844 7.94439 77.7032 7.94439H79.7624C79.8812 7.94439 80 8.05814 80 8.17192L79.8416 15.9722L79.8521 16.4475L79.8416 17.11L79.9736 22.7257H79.971Z" fill="white"/>
<path d="M0.232328 17.1959C0.116164 17.1959 0 17.0822 0 16.9684L0.158405 8.15425L0.00264009 0.22756C0.00264009 0.11378 0.118804 0 0.237608 0H23.943C24.0591 0 24.1753 0.11378 24.1753 0.22756V1.59292C24.1753 1.7067 24.0591 1.82048 23.943 1.82048H2.48696L2.3708 7.43363H8.27139C8.38756 7.43363 8.50374 7.54741 8.50374 7.66119V9.02656C8.50374 9.14034 8.38756 9.25412 8.27139 9.25412H2.3708L2.48432 16.9684C2.48432 17.0822 2.36816 17.1959 2.252 17.1959H0.232328Z" fill="white"/>
<path d="M10.0297 17.5525C9.91089 17.5525 9.79211 17.4387 9.79211 17.3249L9.89241 12.622L9.79211 8.01517C9.79211 7.90139 9.91089 7.78761 10.0297 7.78761H11.9702C12.089 7.78761 12.2078 7.90139 12.1893 8.01517L12.1286 9.53223C12.881 8.31858 14.2274 7.71177 15.6927 7.71177C15.8511 7.71177 16.0095 7.72945 16.1468 7.74968C16.2841 7.76991 16.3844 7.88116 16.3844 8.01517V9.34261C16.3844 9.45639 16.2841 9.54994 16.1468 9.54994C16.028 9.53223 15.8696 9.53223 15.7112 9.53223C13.8103 9.53223 12.3239 10.574 12.1867 12.756L12.2262 17.3249C12.2262 17.4387 12.1075 17.5525 11.9886 17.5525H10.0297Z" fill="white"/>
<path d="M24.4974 17.5525C24.3786 17.5525 24.2598 17.4387 24.2598 17.3249L24.2994 16.225C23.5866 17.1732 22.5385 17.7421 21.1524 17.7421C18.3407 17.7421 16.8359 15.5423 16.8359 12.6979C16.8359 9.85334 18.478 7.59799 21.2105 7.59799C22.5358 7.59799 23.5866 8.09102 24.2783 9.0392L24.2387 8.01517C24.2387 7.90139 24.3575 7.78761 24.4763 7.78761H26.4351C26.5539 7.78761 26.6727 7.90139 26.6727 8.01517L26.5724 12.6422L26.6727 17.3249C26.6727 17.4387 26.5539 17.5525 26.4351 17.5525H24.4948H24.4974ZM21.8045 16.1315C23.407 16.1315 24.3179 14.9937 24.339 12.7383C24.3575 10.4829 23.4677 9.23135 21.8441 9.21112C20.1228 9.19089 19.27 10.4627 19.27 12.5487C19.27 14.8243 20.1201 16.1315 21.8045 16.1315Z" fill="white"/>
<path d="M30.7939 13.9115L30.8943 17.3249C30.8943 17.4387 30.7754 17.5525 30.6566 17.5525H28.6186C28.4998 17.5525 28.381 17.4387 28.381 17.3249L28.4813 13.9115L28.4232 8.01517C28.4232 7.90139 28.542 7.78761 28.6609 7.78761H30.522C30.6408 7.78761 30.7596 7.90139 30.7596 8.01517L30.72 9.21112C31.3933 8.22503 32.3438 7.56258 33.7484 7.56258C35.1527 7.56258 36.2036 8.16939 36.6577 9.49685C37.4709 8.09355 38.5188 7.56258 39.8257 7.56258C41.864 7.56258 43.0519 8.756 43.0519 11.3932V13.914L43.11 17.3274C43.11 17.4412 42.9912 17.555 42.8723 17.555H40.8713C40.7525 17.555 40.6337 17.4412 40.6337 17.3274L40.7314 13.914V11.4488C40.7314 9.96965 40.0581 9.34514 39.068 9.34514C38.136 9.34514 37.1884 10.2933 36.9296 12.0379V13.914L37.0273 17.3274C37.0273 17.4412 36.9085 17.555 36.7897 17.555H34.7884C34.6696 17.555 34.5508 17.4412 34.5508 17.3274L34.63 13.914V11.4488C34.63 9.96965 33.9966 9.34514 32.988 9.34514C31.9794 9.34514 30.9867 10.4071 30.7886 12.3413V13.914H30.7939V13.9115Z" fill="white"/>
<path d="M53.9424 14.2149C54.061 14.2149 54.1613 14.3287 54.1402 14.4425C53.8448 16.2806 52.1814 17.78 49.4886 17.78C46.2015 17.78 44.4195 15.6764 44.4195 12.6979C44.4195 9.71936 46.2991 7.56005 49.4094 7.56005C52.5193 7.56005 54.3382 9.57017 54.4174 12.8698C54.4174 12.9836 54.2986 13.0973 54.1798 13.0973H46.814C46.9143 15.1833 47.8041 16.1694 49.5071 16.1694C50.7345 16.1694 51.5451 15.6182 51.8434 14.445C51.883 14.311 52.0019 14.2174 52.1391 14.2174H53.9424V14.2149ZM49.4279 9.15298C48.0021 9.15298 47.1519 9.98735 46.8932 11.5601H51.8434C51.7431 10.2908 50.9721 9.15298 49.4279 9.15298Z" fill="white"/>
<path d="M55.8168 17.5525C55.698 17.5525 55.5791 17.4387 55.5791 17.3249L55.698 10.8774L55.5791 4.50568C55.5791 4.3919 55.698 4.27812 55.8168 4.27812H57.7758C57.8947 4.27812 58.0135 4.3919 58.0135 4.50568L57.8947 10.8774L58.0135 17.3249C58.0135 17.4387 57.8947 17.5525 57.7758 17.5525H55.8168Z" fill="white"/>
<path d="M68.7585 14.2149C68.8774 14.2149 68.9777 14.3287 68.9566 14.4425C68.6609 16.2806 66.9975 17.78 64.3047 17.78C61.0178 17.78 59.2356 15.6764 59.2356 12.6979C59.2356 9.71936 61.1155 7.56005 64.2255 7.56005C67.3354 7.56005 69.1546 9.57017 69.2338 12.8698C69.2338 12.9836 69.115 13.0973 68.9962 13.0973H61.6304C61.7307 15.1833 62.6202 16.1694 64.3232 16.1694C65.5509 16.1694 66.3612 15.6182 66.6595 14.445C66.6991 14.311 66.818 14.2174 66.9552 14.2174H68.7585V14.2149ZM64.244 9.15298C62.8182 9.15298 61.9683 9.98735 61.7096 11.5601H66.6595C66.5592 10.2908 65.7885 9.15298 64.244 9.15298Z" fill="white"/>
</svg>
