<svg width="541" height="169" viewBox="0 0 541 169" fill="none" xmlns="http://www.w3.org/2000/svg">
    <path d="M540.804 160.026L540.982 167.398C540.982 168.199 540.179 169 539.375 169H363.197C362.393 169 361.59 168.199 361.59 167.398V157.783C361.59 156.982 362.393 156.181 363.197 156.181H523.843L524.647 125.557V115.159L524.075 116.121C519.255 122.797 512.166 126.803 502.793 126.803C491.403 126.803 483.19 121.248 478.423 112.471C478.03 111.759 477.655 110.993 477.316 110.227C475.066 105.278 473.834 99.4558 473.639 93.153C473.621 92.5299 473.602 82.1142 473.602 81.4911C473.602 81.0102 473.602 80.494 473.566 79.9955V79.7106L473.532 77.5207L473.086 57.544C473.086 56.7428 473.905 55.9417 474.727 55.9417H488.993C489.832 55.9417 490.653 56.7428 490.653 57.544L490.207 75.8292V75.8826C490.117 77.0754 490.082 79.1587 490.082 80.4227V80.6721C490.135 96.5359 495.902 115.462 507.221 115.462C517.791 115.462 523.451 99.9542 524.254 84.9628C524.325 83.8947 524.361 82.8264 524.361 81.758V81.2239L524.308 78.9094L524.272 76.7017L523.861 57.544C523.861 56.7428 524.665 55.9417 525.468 55.9417H539.393C540.197 55.9417 541 56.7428 541 57.544L539.929 112.471L540 115.818L539.929 120.483L540.821 160.026H540.804Z" fill="#8E0E6D"/>
    <path d="M1.57112 121.088C0.785559 121.088 0 120.287 0 119.486L1.07122 57.4195L0.0178536 1.6024C0.0178536 0.801202 0.803412 0 1.60683 0H161.914C162.7 0 163.486 0.801202 163.486 1.6024V11.2168C163.486 12.018 162.7 12.8192 161.914 12.8192H16.8181L16.0325 52.3451H55.9353C56.7209 52.3451 57.5065 53.1463 57.5065 53.9475V63.562C57.5065 64.3632 56.7209 65.1644 55.9353 65.1644H16.0325L16.8002 119.486C16.8002 120.287 16.0147 121.088 15.2291 121.088H1.57112Z" fill="#8E0E6D"/>
    <path d="M67.8259 123.599C67.0224 123.599 66.2191 122.797 66.2191 121.996L66.8974 88.8798L66.2191 56.4402C66.2191 55.639 67.0224 54.8378 67.8259 54.8378H80.9482C81.7517 54.8378 82.555 55.639 82.4302 56.4402L82.0195 67.1228C87.1078 58.5767 96.213 54.3037 106.122 54.3037C107.193 54.3037 108.264 54.4282 109.193 54.5707C110.121 54.7131 110.799 55.4965 110.799 56.4402V65.7875C110.799 66.5887 110.121 67.2475 109.193 67.2475C108.389 67.1228 107.318 67.1228 106.247 67.1228C93.3921 67.1228 83.3406 74.4583 82.4123 89.8235L82.68 121.996C82.68 122.797 81.8767 123.599 81.0732 123.599H67.8259Z" fill="#8E0E6D"/>
    <path d="M165.664 123.599C164.86 123.599 164.057 122.797 164.057 121.996L164.325 114.251C159.504 120.928 152.416 124.934 143.043 124.934C124.029 124.934 113.852 109.444 113.852 89.4141C113.852 69.3839 124.957 53.5025 143.436 53.5025C152.398 53.5025 159.504 56.9743 164.182 63.651L163.914 56.4402C163.914 55.639 164.717 54.8378 165.521 54.8378H178.767C179.571 54.8378 180.374 55.639 180.374 56.4402L179.696 89.0223L180.374 121.996C180.374 122.797 179.571 123.599 178.767 123.599H165.646H165.664ZM147.453 113.593C158.29 113.593 164.45 105.58 164.592 89.6988C164.717 73.8174 158.701 65.0041 147.721 64.8617C136.08 64.7192 130.314 73.6749 130.314 88.3636C130.314 104.388 136.062 113.593 147.453 113.593Z" fill="#8E0E6D"/>
    <path d="M208.244 97.9602L208.922 121.996C208.922 122.797 208.119 123.599 207.315 123.599H193.533C192.73 123.599 191.926 122.797 191.926 121.996L192.605 97.9602L192.212 56.4402C192.212 55.639 193.016 54.8378 193.819 54.8378H206.405C207.208 54.8378 208.012 55.639 208.012 56.4402L207.744 64.8617C212.297 57.9179 218.725 53.2532 228.223 53.2532C237.72 53.2532 244.827 57.5261 247.898 66.8737C253.397 56.9921 260.483 53.2532 269.322 53.2532C283.105 53.2532 291.138 61.6568 291.138 80.2268V97.978L291.531 122.014C291.531 122.815 290.728 123.616 289.924 123.616H276.392C275.589 123.616 274.785 122.815 274.785 122.014L275.446 97.978V80.6186C275.446 70.203 270.893 65.8053 264.197 65.8053C257.895 65.8053 251.486 72.4819 249.737 84.7671V97.978L250.397 122.014C250.397 122.815 249.594 123.616 248.79 123.616H235.256C234.453 123.616 233.649 122.815 233.649 122.014L234.185 97.978V80.6186C234.185 70.203 229.902 65.8053 223.081 65.8053C216.261 65.8053 209.547 73.2831 208.208 86.9036V97.978H208.244V97.9602Z" fill="#8E0E6D"/>
    <path d="M364.786 100.097C365.587 100.097 366.266 100.898 366.123 101.699C364.125 114.643 352.877 125.201 334.667 125.201C312.437 125.201 300.387 110.388 300.387 89.4141C300.387 68.4405 313.098 53.2354 334.131 53.2354C355.162 53.2354 367.462 67.3899 367.998 90.6247C367.998 91.4259 367.194 92.2271 366.391 92.2271H316.58C317.258 106.916 323.275 113.86 334.792 113.86C343.092 113.86 348.574 109.978 350.591 101.717C350.859 100.773 351.663 100.115 352.591 100.115H364.786V100.097ZM334.256 64.4522C324.614 64.4522 318.865 70.3276 317.115 81.402H350.591C349.913 72.4641 344.699 64.4522 334.256 64.4522Z" fill="#8E0E6D"/>
    <path d="M377.461 123.599C376.657 123.599 375.854 122.797 375.854 121.996L376.657 76.5948L375.854 31.7275C375.854 30.9263 376.657 30.1251 377.461 30.1251H390.709C391.513 30.1251 392.316 30.9263 392.316 31.7275L391.513 76.5948L392.316 121.996C392.316 122.797 391.513 123.599 390.709 123.599H377.461Z" fill="#8E0E6D"/>
    <path d="M464.98 100.097C465.783 100.097 466.462 100.898 466.319 101.699C464.319 114.643 453.07 125.201 434.86 125.201C412.633 125.201 400.581 110.388 400.581 89.4141C400.581 68.4405 413.294 53.2354 434.325 53.2354C455.356 53.2354 467.658 67.3899 468.193 90.6247C468.193 91.4259 467.39 92.2271 466.587 92.2271H416.775C417.454 106.916 423.469 113.86 434.985 113.86C443.288 113.86 448.768 109.978 450.785 101.717C451.053 100.773 451.856 100.115 452.785 100.115H464.98V100.097ZM434.45 64.4522C424.808 64.4522 419.061 70.3276 417.311 81.402H450.785C450.107 72.4641 444.895 64.4522 434.45 64.4522Z" fill="#8E0E6D"/>
</svg>
